<svg xmlns="http://www.w3.org/2000/svg" width="410" height="404" viewBox="0 0 410 404" fill="none">
  <path
    d="M399.6 59.5 214.3 378.7c-3.8 6.6-13.3 6.6-17.2 0L10.4 59.5c-4.1-7.1 1.4-15.8 9.6-15.8h370c8.2 0 13.7 8.7 9.6 15.8Z"
    fill="url(#paint0_linear)"
  />
  <path
    d="M292.9 28.3 195.8 195.8c-1.9 3.2-6.5 3.2-8.4 0L90.3 28.3c-2-3.4.6-7.7 4.6-7.7h193.4c4 0 6.6 4.3 4.6 7.7Z"
    fill="url(#paint1_linear)"
  />
  <defs>
    <linearGradient
      id="paint0_linear"
      x1="10.4"
      y1="59.5"
      x2="275.9"
      y2="388.8"
      gradientUnits="userSpaceOnUse"
    >
      <stop stop-color="#41D1FF" />
      <stop offset="1" stop-color="#BD34FE" />
    </linearGradient>
    <linearGradient
      id="paint1_linear"
      x1="90.3"
      y1="28.3"
      x2="239.8"
      y2="200.9"
      gradientUnits="userSpaceOnUse"
    >
      <stop stop-color="#FFEA83" />
      <stop offset="0.083" stop-color="#FFDD35" />
      <stop offset="1" stop-color="#FFA800" />
    </linearGradient>
  </defs>
</svg>
